<mxfile host="app.diagrams.net" modified="2021-05-13T04:18:29.922Z" agent="5.0 (Windows NT 10.0; WOW64) AppleWebKit/537.36 (KHTML, like Gecko) Chrome/86.0.4240.198 Safari/537.36" etag="Y5Wg2VTuGNGDKRIl1fIv" version="14.6.11" type="github">
  <diagram id="euWnB4dTJNd61s4yswDy" name="Page-1">
    <mxGraphModel dx="1038" dy="553" grid="1" gridSize="10" guides="1" tooltips="1" connect="1" arrows="1" fold="1" page="1" pageScale="1" pageWidth="827" pageHeight="1169" math="0" shadow="0">
      <root>
        <mxCell id="0" />
        <mxCell id="1" parent="0" />
        <mxCell id="dXHfZ_SxLVNhI_nAk0L0-5" value="&lt;font color=&quot;#ffffff&quot;&gt;Plug Control&lt;/font&gt;" style="rounded=1;whiteSpace=wrap;html=1;fillColor=#dae8fc;strokeColor=#6c8ebf;gradientColor=#7ea6e0;" parent="1" vertex="1">
          <mxGeometry x="210" y="315" width="380" height="60" as="geometry" />
        </mxCell>
        <mxCell id="dXHfZ_SxLVNhI_nAk0L0-6" value="&lt;font color=&quot;#ffffff&quot;&gt;Stream Manage&lt;/font&gt;" style="rounded=1;whiteSpace=wrap;html=1;fillColor=#e6d0de;strokeColor=#996185;gradientColor=#d5739d;" parent="1" vertex="1">
          <mxGeometry x="210" y="375" width="380" height="60" as="geometry" />
        </mxCell>
        <mxCell id="dXHfZ_SxLVNhI_nAk0L0-7" value="&lt;font color=&quot;#ffffff&quot;&gt;IP Reassemble&lt;/font&gt;" style="rounded=1;whiteSpace=wrap;html=1;fillColor=#f8cecc;strokeColor=#b85450;gradientColor=#ea6b66;" parent="1" vertex="1">
          <mxGeometry x="210" y="435" width="380" height="60" as="geometry" />
        </mxCell>
        <mxCell id="dXHfZ_SxLVNhI_nAk0L0-8" value="Packet Capture" style="rounded=1;whiteSpace=wrap;html=1;fillColor=#e3c800;strokeColor=#B09500;fontColor=#000000;" parent="1" vertex="1">
          <mxGeometry x="210" y="495" width="190" height="60" as="geometry" />
        </mxCell>
        <mxCell id="dXHfZ_SxLVNhI_nAk0L0-10" value="&lt;font color=&quot;#33001a&quot;&gt;Packet Send&lt;/font&gt;" style="rounded=1;whiteSpace=wrap;html=1;fillColor=#f0a30a;strokeColor=#BD7000;fontColor=#000000;" parent="1" vertex="1">
          <mxGeometry x="400" y="495" width="190" height="60" as="geometry" />
        </mxCell>
        <mxCell id="dXHfZ_SxLVNhI_nAk0L0-11" value="&lt;font color=&quot;#000000&quot;&gt;Pcap/Pag/Ppf/Pfring/DPDK Library&lt;/font&gt;" style="rounded=1;whiteSpace=wrap;html=1;strokeColor=#36393d;fillColor=#ADADAD;" parent="1" vertex="1">
          <mxGeometry x="210" y="555" width="380" height="60" as="geometry" />
        </mxCell>
        <mxCell id="0rOJCz70GYUaVWOWG3Ax-2" value="" style="rounded=0;whiteSpace=wrap;html=1;opacity=60;fillColor=#000000;" vertex="1" parent="1">
          <mxGeometry x="107.5" y="260" width="585" height="370" as="geometry" />
        </mxCell>
        <mxCell id="0rOJCz70GYUaVWOWG3Ax-3" value="&lt;b&gt;&lt;font style=&quot;font-size: 18px&quot; color=&quot;#ffffff&quot;&gt;平台层&lt;/font&gt;&lt;/b&gt;" style="text;html=1;strokeColor=none;fillColor=none;align=center;verticalAlign=middle;whiteSpace=wrap;rounded=0;opacity=40;" vertex="1" parent="1">
          <mxGeometry x="357.5" y="280" width="85" height="10" as="geometry" />
        </mxCell>
        <mxCell id="0rOJCz70GYUaVWOWG3Ax-6" value="&lt;font color=&quot;#ffffff&quot; style=&quot;font-size: 18px&quot;&gt;解析层插件实现&lt;/font&gt;" style="rounded=1;whiteSpace=wrap;html=1;fillColor=#e6d0de;gradientColor=#d5739d;strokeColor=#996185;" vertex="1" parent="1">
          <mxGeometry x="107.5" y="199" width="425" height="60" as="geometry" />
        </mxCell>
        <mxCell id="0rOJCz70GYUaVWOWG3Ax-7" value="&lt;font color=&quot;#ffffff&quot; style=&quot;font-size: 18px&quot;&gt;业务层插件实现&lt;/font&gt;" style="rounded=1;whiteSpace=wrap;html=1;fillColor=#f8cecc;strokeColor=#b85450;gradientColor=#ea6b66;" vertex="1" parent="1">
          <mxGeometry x="107.5" y="139" width="425" height="60" as="geometry" />
        </mxCell>
        <mxCell id="0rOJCz70GYUaVWOWG3Ax-10" value="&lt;font color=&quot;#ffffff&quot; style=&quot;font-size: 18px&quot;&gt;插件管理&lt;/font&gt;" style="rounded=1;whiteSpace=wrap;html=1;fillColor=#6d8764;direction=south;strokeColor=#3A5431;fontColor=#ffffff;" vertex="1" parent="1">
          <mxGeometry x="530" y="139" width="82.5" height="120" as="geometry" />
        </mxCell>
        <mxCell id="0rOJCz70GYUaVWOWG3Ax-11" value="&lt;font color=&quot;#ffffff&quot; style=&quot;font-size: 18px&quot;&gt;公共组件&lt;/font&gt;" style="rounded=1;whiteSpace=wrap;html=1;fillColor=#6d8764;direction=south;strokeColor=#3A5431;fontColor=#ffffff;" vertex="1" parent="1">
          <mxGeometry x="612.5" y="139" width="80" height="120" as="geometry" />
        </mxCell>
      </root>
    </mxGraphModel>
  </diagram>
</mxfile>
